# xmcd
#
# Track frame offsets: 
#        150
#        24250
#        37666
#        57790
#        80316
#        93969
#        112843
#        133567
#        149558
#        167980
#
# Disc length: 2508 seconds
#
# Revision: 0
# Processed by: cddbd v1.5.2PL0 Copyright (c) Steve Scherf et al.
# Submitted via: ExactAudioCopyFreeDBPlugin 1.0
#
DISCID=7209ca0a
DTITLE=Joshua Kadison - Painted Desert Serenade
DYEAR=1993
DGENRE=Country
TTITLE0=Jessie
TTITLE1=Painted Desert Serenade
TTITLE2=Beau's All Night Radio Love Line
TTITLE3=Invisible Man
TTITLE4=Mama's Arms
TTITLE5=Beautiful In My Arms
TTITLE6=Picture Postcards From LA
TTITLE7=When A Woman Cries
TTITLE8=Georgia Rain
TTITLE9=Bonus Track: All I Ever Ask
EXTD=
EXTT0=
EXTT1=
EXTT2=
EXTT3=
EXTT4=
EXTT5=
EXTT6=
EXTT7=
EXTT8=
EXTT9=
PLAYORDER=
